<svg xmlns="http://www.w3.org/2000/svg" viewBox="0 0 1280 720" width="1280" height="720">
  <rect width="1280" height="720" fill="oklch(0.18 0.02 250)"/>

  <text x="640" y="80" text-anchor="middle" font-family="ui-monospace, SF Mono, Menlo, monospace" font-size="44" font-weight="700" fill="oklch(0.96 0 0)">photo-sort</text>
  <text x="640" y="124" text-anchor="middle" font-family="ui-monospace, SF Mono, Menlo, monospace" font-size="22" fill="oklch(0.78 0.05 250)">10 years of phone photos, sorted in 30 seconds</text>

  <g transform="translate(80,180)">
    <text x="0" y="-16" font-family="ui-monospace, monospace" font-size="20" fill="oklch(0.65 0.18 30)">before</text>
    <rect x="0" y="0" width="500" height="460" rx="12" fill="oklch(0.24 0.02 250)" stroke="oklch(0.45 0.04 250)" stroke-width="2"/>
    <g font-family="ui-monospace, monospace" font-size="22" fill="oklch(0.85 0.02 250)">
      <text x="24" y="40">📁 dump/</text>
      <text x="48" y="76">IMG_4831.HEIC</text>
      <text x="48" y="108">IMG_4832.HEIC</text>
      <text x="48" y="140">IMG_4833.HEIC</text>
      <text x="48" y="172">IMG_4834.HEIC</text>
      <text x="48" y="204">IMG_4835.HEIC</text>
      <text x="48" y="236">VID_20210413.MOV</text>
      <text x="48" y="268">IMG_4837.HEIC</text>
      <text x="48" y="300">IMG_4838.HEIC</text>
      <text x="48" y="332">IMG_4839.HEIC</text>
      <text x="48" y="364">IMG_4840.HEIC</text>
      <text x="48" y="396">PXL_20220...HEIC</text>
      <text x="48" y="430" fill="oklch(0.55 0.04 250)">… 11,847 more</text>
    </g>
  </g>

  <g transform="translate(600,400)" stroke="oklch(0.85 0.15 145)" stroke-width="6" stroke-linecap="round" stroke-linejoin="round" fill="none">
    <path d="M 0 0 L 70 0"/>
    <path d="M 60 -14 L 80 0 L 60 14"/>
  </g>
  <text x="640" y="380" text-anchor="middle" font-family="ui-monospace, monospace" font-size="20" fill="oklch(0.85 0.15 145)">photo-sort</text>

  <g transform="translate(700,180)">
    <text x="0" y="-16" font-family="ui-monospace, monospace" font-size="20" fill="oklch(0.85 0.15 145)">after</text>
    <rect x="0" y="0" width="500" height="460" rx="12" fill="oklch(0.24 0.02 250)" stroke="oklch(0.45 0.04 250)" stroke-width="2"/>
    <g font-family="ui-monospace, monospace" font-size="22" fill="oklch(0.92 0.02 250)">
      <text x="24" y="40">📁 sorted/</text>
      <text x="48" y="76">📁 2019/</text>
      <text x="72" y="108">📁 07-July/</text>
      <text x="72" y="140">📁 08-August/</text>
      <text x="72" y="172">📁 12-December/</text>
      <text x="48" y="208">📁 2020/</text>
      <text x="72" y="240">📁 03-March/</text>
      <text x="72" y="272">📁 06-June/</text>
      <text x="48" y="308">📁 2021/</text>
      <text x="72" y="340">📁 04-April/</text>
      <text x="48" y="376">📁 2022/</text>
      <text x="48" y="412">📁 2023/</text>
      <text x="48" y="444" fill="oklch(0.65 0.04 250)">…</text>
    </g>
  </g>

  <text x="640" y="680" text-anchor="middle" font-family="ui-monospace, monospace" font-size="20" fill="oklch(0.78 0.05 250)">github.com/westonkelliher/photo-sort   ·   $9 on gumroad</text>
</svg>
